# xmcd CD database file
#
# Track frame offsets:
#	150
#	5632
#	21017
#	31035
#	45257
#	53125
#	70757
#	73417
#	81277
#	98955
#	113062
#	128845
#	137942
#	148565
#	159395
#
# Disc length: 2198 seconds
#
# Revision: 0
# Processed by: cddbd v1.4PL0 Copyright (c) Steve Scherf et al.
# Submitted via: CDex 1.51
#
DISCID=c808940f
DTITLE=Billie Holiday - Billie Holiday at Storyville
DYEAR=1900
DGENRE=Jazz
TTITLE0=Intro
TTITLE1=I Cover the Waterfront
TTITLE2=Too Marvelous for Words
TTITLE3=I Love You, Porgy
TTITLE4=Them There Eyes
TTITLE5=Willow, Weep for Me
TTITLE6=Intro 2
TTITLE7=I Only Have Eyes for You
TTITLE8=You Go to My Head
TTITLE9=He's Funny That Way
TTITLE10=Billie's Blues
TTITLE11=Miss Brown to You
TTITLE12=Lover, Come Back to Me
TTITLE13=Ain't Nobody's Business If I Do
TTITLE14=You're Driving Me Crazy
EXTD=
EXTT0=
EXTT1=
EXTT2=
EXTT3=
EXTT4=
EXTT5=
EXTT6=
EXTT7=
EXTT8=
EXTT9=
EXTT10=
EXTT11=
EXTT12=
EXTT13=
EXTT14=
PLAYORDER=
